<?xml version="1.0" encoding="UTF-8" standalone="no"?>
<!-- Generator: Adobe Illustrator 27.5.0, SVG Export Plug-In . SVG Version: 6.00 Build 0)  -->

<svg
   version="1.1"
   x="0px"
   y="0px"
   viewBox="0 0 500 500"
   style="enable-background:new 0 0 500 500;"
   xml:space="preserve"
   id="svg84"
   sodipodi:docname="waitlist1.svg"
   inkscape:version="1.4 (86a8ad7, 2024-10-11)"
   xmlns:inkscape="http://www.inkscape.org/namespaces/inkscape"
   xmlns:sodipodi="http://sodipodi.sourceforge.net/DTD/sodipodi-0.dtd"
   xmlns="http://www.w3.org/2000/svg"
   xmlns:svg="http://www.w3.org/2000/svg"><defs
   id="defs84" /><sodipodi:namedview
   id="namedview84"
   pagecolor="#ffffff"
   bordercolor="#000000"
   borderopacity="0.25"
   inkscape:showpageshadow="2"
   inkscape:pageopacity="0.0"
   inkscape:pagecheckerboard="0"
   inkscape:deskcolor="#d1d1d1"
   inkscape:zoom="0.654"
   inkscape:cx="213.30275"
   inkscape:cy="260.70336"
   inkscape:window-width="1366"
   inkscape:window-height="697"
   inkscape:window-x="-8"
   inkscape:window-y="-8"
   inkscape:window-maximized="1"
   inkscape:current-layer="svg84" />
<g
   id="BACKGROUND">
	<rect
   style="fill:#ffffff"
   width="500"
   height="500"
   id="rect1"
   ry="0"
   x="0"
   y="0" />
</g>
<g
   id="OBJECTS">
	<g
   id="g84">
		<rect
   x="41.059"
   y="427.489"
   style="fill:#B6BBC7;"
   width="417.882"
   height="6.559"
   id="rect2" />
		<g
   id="g83">
			<g
   id="g33">
				<rect
   x="53.155"
   y="251.225"
   style="fill:#f5f5dc;fill-opacity:1"
   width="173.971"
   height="176.265"
   id="rect3" />
				<rect
   x="53.155"
   y="251.225"
   style="fill:#dec05f;fill-opacity:1"
   width="173.971"
   height="36.471"
   id="rect4" />
				<rect
   x="71.788"
   y="304.637"
   style="fill:#FFFFFF;"
   width="23.765"
   height="23.765"
   id="rect5" />
				<rect
   x="109.435"
   y="304.637"
   style="fill:#FFFFFF;"
   width="23.765"
   height="23.765"
   id="rect6" />
				<rect
   x="147.082"
   y="304.637"
   style="fill:#FFFFFF;"
   width="23.765"
   height="23.765"
   id="rect7" />
				<rect
   x="184.729"
   y="304.637"
   style="fill:#FFFFFF;"
   width="23.765"
   height="23.765"
   id="rect8" />
				<rect
   x="71.788"
   y="339.357"
   style="fill:#FFFFFF;"
   width="23.765"
   height="23.765"
   id="rect9" />
				<rect
   x="109.435"
   y="339.357"
   style="fill:#FFFFFF;"
   width="23.765"
   height="23.765"
   id="rect10" />
				<rect
   x="147.082"
   y="339.357"
   style="fill:#FFFFFF;"
   width="23.765"
   height="23.765"
   id="rect11" />
				<rect
   x="184.729"
   y="339.357"
   style="fill:#FFFFFF;"
   width="23.765"
   height="23.765"
   id="rect12" />
				<rect
   x="71.788"
   y="374.078"
   style="fill:#FFFFFF;"
   width="23.765"
   height="23.765"
   id="rect13" />
				<rect
   x="109.435"
   y="374.078"
   style="fill:#FFFFFF;"
   width="23.765"
   height="23.765"
   id="rect14" />
				<rect
   x="147.082"
   y="374.078"
   style="fill:#FFFFFF;"
   width="23.765"
   height="23.765"
   id="rect15" />
				<rect
   x="184.729"
   y="374.078"
   style="fill:#FFFFFF;"
   width="23.765"
   height="23.765"
   id="rect16" />
				<g
   id="g25">
					<path
   style="fill:#DBE2EF;"
   d="M68.964,259.928L68.964,259.928c-1.519,0-2.75-1.231-2.75-2.75v-11.907       c0-1.519,1.231-2.75,2.75-2.75l0,0c1.519,0,2.75,1.231,2.75,2.75v11.907C71.714,258.697,70.482,259.928,68.964,259.928z"
   id="path16" />
					<path
   style="fill:#DBE2EF;"
   d="M84.781,259.928L84.781,259.928c-1.519,0-2.75-1.231-2.75-2.75v-11.907       c0-1.519,1.231-2.75,2.75-2.75l0,0c1.519,0,2.75,1.231,2.75,2.75v11.907C87.531,258.697,86.3,259.928,84.781,259.928z"
   id="path17" />
					<path
   style="fill:#DBE2EF;"
   d="M100.598,259.928L100.598,259.928c-1.519,0-2.75-1.231-2.75-2.75v-11.907       c0-1.519,1.231-2.75,2.75-2.75l0,0c1.519,0,2.75,1.231,2.75,2.75v11.907C103.348,258.697,102.117,259.928,100.598,259.928z"
   id="path18" />
					<path
   style="fill:#DBE2EF;"
   d="M116.415,259.928L116.415,259.928c-1.519,0-2.75-1.231-2.75-2.75v-11.907       c0-1.519,1.231-2.75,2.75-2.75l0,0c1.519,0,2.75,1.231,2.75,2.75v11.907C119.165,258.697,117.934,259.928,116.415,259.928z"
   id="path19" />
					<path
   style="fill:#DBE2EF;"
   d="M132.232,259.928L132.232,259.928c-1.519,0-2.75-1.231-2.75-2.75v-11.907       c0-1.519,1.231-2.75,2.75-2.75l0,0c1.518,0,2.75,1.231,2.75,2.75v11.907C134.982,258.697,133.751,259.928,132.232,259.928z"
   id="path20" />
					<path
   style="fill:#DBE2EF;"
   d="M148.049,259.928L148.049,259.928c-1.519,0-2.75-1.231-2.75-2.75v-11.907       c0-1.519,1.231-2.75,2.75-2.75l0,0c1.519,0,2.75,1.231,2.75,2.75v11.907C150.799,258.697,149.568,259.928,148.049,259.928z"
   id="path21" />
					<path
   style="fill:#DBE2EF;"
   d="M163.866,259.928L163.866,259.928c-1.518,0-2.75-1.231-2.75-2.75v-11.907       c0-1.519,1.231-2.75,2.75-2.75l0,0c1.519,0,2.75,1.231,2.75,2.75v11.907C166.616,258.697,165.385,259.928,163.866,259.928z"
   id="path22" />
					<path
   style="fill:#DBE2EF;"
   d="M179.684,259.928L179.684,259.928c-1.519,0-2.75-1.231-2.75-2.75v-11.907       c0-1.519,1.231-2.75,2.75-2.75l0,0c1.519,0,2.75,1.231,2.75,2.75v11.907C182.433,258.697,181.202,259.928,179.684,259.928z"
   id="path23" />
					<path
   style="fill:#DBE2EF;"
   d="M195.501,259.928L195.501,259.928c-1.519,0-2.75-1.231-2.75-2.75v-11.907       c0-1.519,1.231-2.75,2.75-2.75l0,0c1.518,0,2.75,1.231,2.75,2.75v11.907C198.25,258.697,197.019,259.928,195.501,259.928z"
   id="path24" />
					<path
   style="fill:#DBE2EF;"
   d="M211.318,259.928L211.318,259.928c-1.519,0-2.75-1.231-2.75-2.75v-11.907       c0-1.519,1.231-2.75,2.75-2.75l0,0c1.519,0,2.75,1.231,2.75,2.75v11.907C214.067,258.697,212.836,259.928,211.318,259.928z"
   id="path25" />
				</g>
				<g
   id="g32">
					<polygon
   style="fill:#222222;fill-opacity:1"
   points="70.432,310.276 83.67,320.872 102.332,300.842 83.67,328.401 64.685,317.989      "
   id="polygon25" />
					<polygon
   style="fill:#222222;fill-opacity:1"
   points="145.888,344.997 159.126,355.592 177.788,335.563 159.126,363.122 140.141,352.71             "
   id="polygon26" />
					<polygon
   style="fill:#222222;fill-opacity:1"
   points="108.241,379.717 121.479,390.313 140.141,370.284 121.479,397.842 102.494,387.431             "
   id="polygon27" />
					<polygon
   style="fill:#222222;fill-opacity:1"
   points="183.535,310.276 196.773,320.872 215.435,300.842 196.773,328.401 177.788,317.989             "
   id="polygon28" />
					<polygon
   style="fill:#222222;fill-opacity:1"
   points="183.535,379.717 196.773,390.313 215.435,370.284 196.773,397.842 177.788,387.431             "
   id="polygon29" />
					<polygon
   style="fill:#222222;fill-opacity:1"
   points="160.779,316.519 174.146,302.689 158.819,314.491 147.412,302.689 143.783,306.968        156.186,316.519 143.783,326.069 147.412,330.349 158.819,318.547 174.146,330.349      "
   id="polygon30" />
					<polygon
   style="fill:#222222;fill-opacity:1"
   points="85.485,351.239 98.852,337.409 83.525,349.211 72.118,337.409 68.489,341.689        80.891,351.239 68.489,360.79 72.118,365.07 83.525,353.267 98.852,365.07      "
   id="polygon31" />
					<polygon
   style="fill:#222222;fill-opacity:1"
   points="198.426,351.239 211.793,337.409 196.466,349.211 185.059,337.409 181.43,341.689        193.833,351.239 181.43,360.79 185.059,365.07 196.466,353.267 211.793,365.07      "
   id="polygon32" />
				</g>
			</g>
			<g
   id="g44">
				<polygon
   style="fill:#d0aa2b;fill-opacity:1"
   points="238.214,390.088 220.185,427.489 229.2,427.489 258.263,404.479     "
   id="polygon33" />
				<polygon
   style="fill:#d0aa2b;fill-opacity:1"
   points="390.45,390.088 408.479,427.489 399.464,427.489 370.401,404.479     "
   id="polygon34" />
				<rect
   x="287.832"
   y="201.096"
   style="fill:#1f262f;fill-opacity:1"
   width="53"
   height="34"
   id="rect34" />
				<rect
   x="276.347"
   y="182.096"
   style="fill:#222222;fill-opacity:1"
   width="76.97"
   height="19"
   id="rect35" />
				<circle
   style="fill:#dec05f;fill-opacity:1"
   cx="314.332"
   cy="317.989"
   r="109.5"
   id="circle35" />
				
					<ellipse
   transform="matrix(0.7071 -0.7071 0.7071 0.7071 -132.7868 315.4032)"
   style="fill:#e9e9e8;fill-opacity:1"
   cx="314.332"
   cy="317.989"
   rx="94.147"
   ry="94.147"
   id="ellipse35" />
				<g
   id="g43">
					<g
   id="g36">
						
							<line
   style="fill:none;stroke:#FFFFFF;stroke-width:2;stroke-linecap:round;stroke-miterlimit:10;"
   x1="314.332"
   y1="231.5"
   x2="314.332"
   y2="245.891"
   id="line35" />
						
							<line
   style="fill:none;stroke:#FFFFFF;stroke-width:2;stroke-linecap:round;stroke-miterlimit:10;"
   x1="314.332"
   y1="390.088"
   x2="314.332"
   y2="404.479"
   id="line36" />
					</g>
					<g
   id="g38">
						
							<line
   style="fill:none;stroke:#FFFFFF;stroke-width:2;stroke-linecap:round;stroke-miterlimit:10;"
   x1="253.174"
   y1="256.832"
   x2="263.351"
   y2="267.008"
   id="line37" />
						
							<line
   style="fill:none;stroke:#FFFFFF;stroke-width:2;stroke-linecap:round;stroke-miterlimit:10;"
   x1="365.313"
   y1="368.971"
   x2="375.49"
   y2="379.147"
   id="line38" />
					</g>
					<g
   id="g40">
						
							<line
   style="fill:none;stroke:#FFFFFF;stroke-width:2;stroke-linecap:round;stroke-miterlimit:10;"
   x1="227.842"
   y1="317.989"
   x2="242.234"
   y2="317.989"
   id="line39" />
						
							<line
   style="fill:none;stroke:#FFFFFF;stroke-width:2;stroke-linecap:round;stroke-miterlimit:10;"
   x1="386.43"
   y1="317.989"
   x2="400.822"
   y2="317.989"
   id="line40" />
					</g>
					<g
   id="g42">
						
							<line
   style="fill:none;stroke:#FFFFFF;stroke-width:2;stroke-linecap:round;stroke-miterlimit:10;"
   x1="253.174"
   y1="379.147"
   x2="263.351"
   y2="368.971"
   id="line41" />
						
							<line
   style="fill:none;stroke:#FFFFFF;stroke-width:2;stroke-linecap:round;stroke-miterlimit:10;"
   x1="365.313"
   y1="267.008"
   x2="375.49"
   y2="256.832"
   id="line42" />
					</g>
				</g>
				<path
   style="opacity:0.5;fill:#94AFCC;"
   d="M304.681,240.809c51.996,0,94.147,42.151,94.147,94.147      c0,13.432-2.819,26.203-7.888,37.764c11.039-15.424,17.538-34.318,17.538-54.732c0-51.996-42.151-94.147-94.147-94.147      c-38.564,0-71.706,23.19-86.259,56.382C245.151,256.362,273.099,240.809,304.681,240.809z"
   id="path43" />
				<circle
   style="fill:#FFFFFF;"
   cx="314.332"
   cy="317.989"
   r="8.735"
   id="circle43" />
				<polyline
   style="fill:none;stroke:#FFFFFF;stroke-width:4;stroke-linecap:round;stroke-miterlimit:10;"
   points="328.11,256.832       314.332,317.989 276.131,343.342     "
   id="polyline43" />
				
					<line
   style="fill:none;stroke:#FFFFFF;stroke-linecap:round;stroke-miterlimit:10;"
   x1="314.332"
   y1="317.989"
   x2="268.489"
   y2="283.695"
   id="line43" />
			</g>
			<g
   id="g62">
				<polygon
   style="fill:#7A5148;"
   points="293.661,131.887 290.011,150.019 262.725,154.924 263.626,161.512 301.72,161.512       308.268,132.974     "
   id="polygon44" />
				<polygon
   style="opacity:0.5;fill:#7A5148;"
   points="302.723,132.561 297.811,161.512 301.72,161.512 308.268,132.974     "
   id="polygon45" />
				<path
   style="fill:#f5f5dc;fill-opacity:1"
   d="M360.456,131.213l-3.651-16.961c-0.98-4.554-4.43-8.174-8.931-9.372l-22.528-5.997l-3.842-13.322      l-4.293,1.365l-0.891,11.967l-18.181,9.857c-2.012,1.091-3.411,3.048-3.791,5.305l-2.974,17.661l6.331,0.471      c0.157,1.441,0.734,2.899,1.982,4.394c4.869,5.848,6.211,19.602,6.211,19.602l37.52-5.728l-1.673-18.095l14.474-0.932      L360.456,131.213z"
   id="path45" />
				<path
   style="fill:#f5f5dc;fill-opacity:1"
   d="M303.486,138.286c0,0,16.987-1.375,27.199,0C330.685,138.286,315.536,151.064,303.486,138.286z"
   id="path46" />
				<polygon
   style="fill:#f5f5dc;fill-opacity:1"
   points="341.412,128.774 338.92,151.143 343.417,150.456     "
   id="polygon46" />
				<path
   style="fill:#966358;"
   d="M302.723,106.264c0,0,13.315,7.443,38.109-3.259l-15.487-4.122l-3.842-13.322l-4.293,1.365      l-0.891,11.967L302.723,106.264z"
   id="path47" />
				<path
   style="opacity:0.5;fill:#966358;"
   d="M316.32,98.893c0,0,5.731-1.385,6.519-8.703l-1.335-4.629l-4.293,1.365      L316.32,98.893z"
   id="path48" />
				<path
   style="fill:#966358;"
   d="M313.405,97.749L313.405,97.749c-5.209,0.628-9.941-3.086-10.568-8.295L302,82.504      c-0.628-5.209,3.086-9.941,8.295-10.568h0c5.209-0.628,9.941,3.086,10.568,8.295l0.837,6.95      C322.328,92.39,318.615,97.121,313.405,97.749z"
   id="path49" />
				<path
   style="fill:#7B92AD;"
   d="M315.768,162.262h-79.505c-1.456,0-2.636-1.18-2.636-2.636v-1.264h82.142V162.262z"
   id="path50" />
				<path
   style="fill:#966358;"
   d="M357.393,131.493l-15.649,0.868l1.673,18.095l-37.52,5.728l0.222,6.077h45.778      c4.04,0,7.24-3.411,6.983-7.443L357.393,131.493z"
   id="path51" />
				<path
   style="fill:#966358;"
   d="M305.897,156.184l-11.095-3.235l-13.529,3.647v1.765h14.588c0,0,1.457,2.978,10.258,3.901      L305.897,156.184z"
   id="path52" />
				<path
   style="fill:#a3b0c2;fill-opacity:1"
   d="M287.744,158.361h-54.118l-5.434-31.016c-0.155-0.882,0.524-1.69,1.419-1.69h51.192      c0.7,0,1.298,0.503,1.419,1.192L287.744,158.361z"
   id="path53" />
				<g
   id="g54">
					<path
   style="fill:#23262B;"
   d="M303.273,116.361c0.21,2.566-0.593,5.166-1.91,7.405c-0.322,0.564-0.714,1.11-1.055,1.611       c-0.341,0.517-0.654,1.051-0.924,1.604c-0.55,1.108-0.975,2.254-1.049,3.444c-0.23,2.422,0.83,4.73,2.258,6.814       c1.339,2.198,2.409,4.591,2.892,7.107c-0.453-1.195-0.948-2.361-1.564-3.466c-0.581-1.12-1.247-2.192-1.972-3.221       c-0.353-0.51-0.765-1.005-1.103-1.59c-0.338-0.574-0.629-1.143-0.888-1.767c-0.496-1.245-0.717-2.606-0.619-3.956       c0.226-2.757,1.875-5.046,3.377-6.99c0.705-1.024,1.279-2.141,1.714-3.315C302.877,118.87,303.18,117.634,303.273,116.361z"
   id="path54" />
				</g>
				<g
   id="g55">
					<path
   style="fill:#f5f5dc;fill-opacity:1"
   d="M340.778,121.914c0.425,2.36,0.741,4.729,1.041,7.1c0.311,2.37,0.544,4.747,0.776,7.125       c0.209,2.38,0.416,4.759,0.545,7.146l0.191,3.581c0.027,1.197,0.089,2.391,0.086,3.59c-0.223-1.179-0.381-2.364-0.574-3.545       l-0.469-3.555c-0.31-2.37-0.543-4.748-0.774-7.125c-0.207-2.38-0.415-4.759-0.543-7.146       C340.916,126.699,340.792,124.311,340.778,121.914z"
   id="path55" />
				</g>
				<path
   style="fill:#dec05f;fill-opacity:1"
   d="M260.1,162.262h66.862l1.104,11.923c0,0,1.397,7.912-11.566,7.912c-12.963,0-43.886,0-43.886,0      l13.441,60.401l-11.845,4.836l-22.859-73.157C249.498,168.269,253.91,162.262,260.1,162.262z"
   id="path56" />
				<path
   style="fill:#d7c480;fill-opacity:1"
   d="M285.307,162.262h66.862l1.104,11.923c0,0,1.396,7.912-11.566,7.912c-12.963,0-43.886,0-43.886,0      l13.441,60.401l-11.845,4.836l-22.859-73.157C274.705,168.269,279.117,162.262,285.307,162.262z"
   id="path57" />
				<path
   style="fill:#674a17;fill-opacity:1"
   d="M299.417,247.333l-5.72,24.677l21.745-19.21c0.286-0.253,0.303-0.695,0.036-0.969l-4.216-9.333      L299.417,247.333z"
   id="path58" />
				<path
   style="fill:#674a17;fill-opacity:1"
   d="M274.21,247.333l-5.72,24.677l21.744-19.21c0.287-0.253,0.303-0.695,0.037-0.969l-4.216-9.333      L274.21,247.333z"
   id="path59" />
				<path
   style="fill:#361F1A;"
   d="M308.268,77.067c0,0,2.878,7.34,13.236,8.494l3.842,13.322l13.409,3.569      c0,0,2.023-9.856-8.07-13.973c0,0,4.262-8.824-2.575-12.588c0,0-4.439-15.53-21.991-7.765c0,0-9.787-0.941-10.728,11.529      c-0.941,12.471,6.118,13.412,6.118,13.412s-2.632,6.791,4.389,11.476l10.422-5.651l0.154-2.066c0,0-9.484,5.249-13.636-7.373      C302.837,89.454,302.556,83.655,308.268,77.067z"
   id="path60" />
				<path
   style="fill:#966358;"
   d="M311.261,242.497l-2.994-13.453c-6.182,4.213-13.189,4.405-13.189,4.405l4.338,13.883      C299.417,247.333,303.602,248.28,311.261,242.497z"
   id="path61" />
				<path
   style="fill:#7A5148;"
   d="M274.21,247.333l-4.338-13.883c0,0,6.977-0.428,13.189-4.405l2.994,13.453      C286.054,242.497,280.332,247.707,274.21,247.333z"
   id="path62" />
			</g>
			<g
   id="g64">
				<rect
   x="71.788"
   y="129.863"
   style="fill:#f5f5dc;fill-opacity:1"
   width="68.353"
   height="92.37"
   id="rect62" />
				<rect
   x="77.361"
   y="135.645"
   style="fill:#FFFFFF;"
   width="57.206"
   height="80.807"
   id="rect63" />
				<rect
   x="83.303"
   y="141.527"
   style="fill:#DBE2EF;"
   width="45.323"
   height="69.042"
   id="rect64" />
			</g>
			<g
   id="g67">
				<rect
   x="162.803"
   y="183.998"
   style="fill:#B6BBC7;"
   width="68"
   height="38.235"
   id="rect65" />
				<rect
   x="166.479"
   y="187.41"
   style="fill:#FFFFFF;"
   width="60.647"
   height="31.412"
   id="rect66" />
				<rect
   x="169.861"
   y="190.88"
   style="fill:#DBE2EF;"
   width="53.882"
   height="24.471"
   id="rect67" />
			</g>
			<g
   id="g68">
				<path
   style="fill:#DBE2EF;"
   d="M198.278,139.909v-9.176h-5.222c-0.385-1.404-0.936-2.737-1.642-3.975l3.689-3.689l-6.489-6.489      l-3.689,3.689c-1.238-0.706-2.571-1.257-3.975-1.642v-5.222h-9.177v5.222c-1.404,0.385-2.737,0.936-3.975,1.642l-3.689-3.689      l-6.489,6.489l3.689,3.689c-0.706,1.238-1.257,2.571-1.642,3.975h-5.222v9.176h5.222c0.385,1.404,0.936,2.737,1.642,3.975      l-3.689,3.689l6.489,6.489l3.689-3.689c1.238,0.706,2.571,1.257,3.975,1.642v5.222h9.177v-5.222      c1.404-0.385,2.737-0.936,3.975-1.642l3.689,3.689l6.489-6.489l-3.689-3.689c0.706-1.238,1.257-2.571,1.642-3.975H198.278z       M176.361,143.889c-4.732,0-8.568-3.836-8.568-8.568s3.836-8.568,8.568-8.568c4.732,0,8.568,3.836,8.568,8.568      S181.093,143.889,176.361,143.889z"
   id="path67" />
				<path
   style="fill:#dec05f;fill-opacity:1"
   d="M214.727,164.358l1.534-4.76l-2.709-0.873c0.035-0.793-0.028-1.576-0.188-2.336l2.53-1.297      l-2.281-4.45l-2.53,1.297c-0.524-0.573-1.123-1.082-1.787-1.516l0.873-2.709l-4.76-1.534l-0.873,2.709      c-0.793-0.035-1.576,0.028-2.336,0.187l-1.297-2.53l-4.45,2.281l1.297,2.53c-0.573,0.524-1.082,1.123-1.516,1.787l-2.709-0.873      l-1.534,4.76l2.709,0.873c-0.035,0.793,0.028,1.576,0.187,2.336l-2.53,1.297l2.281,4.45l2.53-1.297      c0.524,0.573,1.123,1.082,1.788,1.516l-0.873,2.709l4.76,1.534l0.873-2.709c0.793,0.035,1.576-0.028,2.336-0.187l1.297,2.53      l4.45-2.281l-1.297-2.53c0.573-0.524,1.081-1.123,1.516-1.788L214.727,164.358z M202.694,162.76      c-2.455-0.791-3.803-3.422-3.012-5.876c0.791-2.454,3.422-3.803,5.876-3.012c2.454,0.791,3.803,3.422,3.012,5.876      C207.78,162.202,205.149,163.551,202.694,162.76z"
   id="path68" />
			</g>
			<g
   id="g69">
				<rect
   x="376.743"
   y="178.377"
   style="fill:#B6BBC7;"
   width="53.176"
   height="30.112"
   id="rect68" />
				<polygon
   style="fill:#CAD2E3;"
   points="376.743,208.489 403.332,188.33 429.92,208.489     "
   id="polygon68" />
				<polygon
   style="fill:#DBE2EF;"
   points="376.743,178.377 403.332,198.284 429.92,178.377     "
   id="polygon69" />
			</g>
			<g
   id="g72">
				<path
   style="fill:#f5f5dc;fill-opacity:1"
   d="M418.891,120.873h-31.265c-2.729,0-4.941,2.212-4.941,4.941v15.427      c0,2.729,2.212,4.941,4.941,4.941h3.53l-3.059,7.464l10.588-7.464h20.206c2.729,0,4.941-2.212,4.941-4.941v-15.427      C423.832,123.085,421.62,120.873,418.891,120.873z"
   id="path69" />
				<path
   style="fill:#112D4E;"
   d="M396.698,136.857c0,0.735-0.596,1.331-1.331,1.331c-0.735,0-1.331-0.596-1.331-1.331      c0-0.735,0.596-1.331,1.331-1.331C396.102,135.526,396.698,136.122,396.698,136.857z"
   id="path70" />
				<path
   style="fill:#112D4E;"
   d="M404.589,136.857c0,0.735-0.596,1.331-1.331,1.331c-0.735,0-1.331-0.596-1.331-1.331      c0-0.735,0.596-1.331,1.331-1.331C403.994,135.526,404.589,136.122,404.589,136.857z"
   id="path71" />
				<path
   style="fill:#112D4E;"
   d="M412.481,136.857c0,0.735-0.596,1.331-1.331,1.331c-0.735,0-1.331-0.596-1.331-1.331      c0-0.735,0.596-1.331,1.331-1.331C411.885,135.526,412.481,136.122,412.481,136.857z"
   id="path72" />
			</g>
			<polygon
   style="fill:#222222;fill-opacity:1"
   points="220.797,106.926 216.654,106.926 216.654,102.783 212.939,102.783 212.939,106.926      208.797,106.926 208.797,110.641 212.939,110.641 212.939,114.783 216.654,114.783 216.654,110.641 220.797,110.641    "
   id="polygon72" />
			<polygon
   style="fill:#222222;fill-opacity:1"
   points="423.15,229.642 419.008,229.642 419.008,225.499 415.292,225.499 415.292,229.642      411.15,229.642 411.15,233.357 415.292,233.357 415.292,237.5 419.008,237.5 419.008,233.357 423.15,233.357    "
   id="polygon73" />
			<polygon
   style="fill:#222222;fill-opacity:1"
   points="381.114,91.649 376.971,91.649 376.971,87.507 373.256,87.507 373.256,91.649      369.114,91.649 369.114,95.365 373.256,95.365 373.256,99.507 376.971,99.507 376.971,95.365 381.114,95.365    "
   id="polygon74" />
			<polygon
   style="fill:#222222;fill-opacity:1"
   points="160.445,168.593 156.303,168.593 156.303,164.45 152.587,164.45 152.587,168.593      148.445,168.593 148.445,172.308 152.587,172.308 152.587,176.451 156.303,176.451 156.303,172.308 160.445,172.308    "
   id="polygon75" />
			<path
   style="fill:#7B92AD;"
   d="M259.966,142.664c0.439,2.309-0.833,4.49-2.843,4.873c-2.01,0.383-3.995-1.179-4.434-3.488     c-0.439-2.309,0.833-4.49,2.843-4.873C257.541,138.794,259.526,140.355,259.966,142.664z"
   id="path75" />
			<g
   id="g82">
				<g
   id="g81">
					<g
   id="g78">
						<path
   style="fill:none;stroke:#B6BBC7;stroke-miterlimit:10;"
   d="M410.641,391.335c0,0,5.998-34.413-9.944-63.977"
   id="path76" />
						<path
   style="fill:none;stroke:#B6BBC7;stroke-miterlimit:10;"
   d="M411.745,375.402c0,0,1.92-13.78,18.576-25.681"
   id="path77" />
						<path
   style="fill:none;stroke:#B6BBC7;stroke-miterlimit:10;"
   d="M411.685,379.294c0,0-5.569-12.095-16.706-18.91"
   id="path78" />
					</g>
					<path
   style="fill:#222222;fill-opacity:1"
   d="M404.55,368.648c0,0-0.066-9.619-11.021-18.517c-9.901-8.041-18.41-15.175-18.41-15.175       S373.984,378.051,404.55,368.648z"
   id="path79" />
					<path
   style="fill:#222222;fill-opacity:1"
   d="M409.25,351.076c0,0-21.179-8.311-19.223-30.195c1.956-21.885-1.491-23.568-1.491-23.568       S424.2,318.933,409.25,351.076z"
   id="path80" />
					<path
   style="fill:#222222;fill-opacity:1"
   d="M420.378,358.771c0,0,0.296-15.991,9.936-22.142c9.64-6.151,14.52-18.305,14.52-18.305       S457.249,356.426,420.378,358.771z"
   id="path81" />
				</g>
				<rect
   x="393.626"
   y="382.342"
   style="fill:#DBE2EF;"
   width="34.706"
   height="45.147"
   id="rect81" />
				<rect
   x="391.303"
   y="377.754"
   style="fill:#DBE2EF;"
   width="39.353"
   height="4.588"
   id="rect82" />
				<path
   style="fill:#DBE2EF;"
   d="M393.626,382.342c0,0,3.882,35.412,34.706,45.147h-34.706V382.342z"
   id="path82" />
			</g>
			<path
   style="opacity:0.3;fill:#5B718C;"
   d="M53.155,287.695c0,0,11.823,119.824,173.971,139.794H53.155V287.695z"
   id="path83" />
		</g>
	</g>
</g>
</svg>
